<svg width="40" height="60" viewBox="0 0 40 60" fill="none" xmlns="http://www.w3.org/2000/svg">
<g clip-path="url(#clip0_2022_1545)">
<path d="M20 60C24.4183 60 28 56.4183 28 52C28 47.5817 24.4183 44 20 44C15.5817 44 12 47.5817 12 52C12 56.4183 15.5817 60 20 60Z" fill="#5AB4C5" fill-opacity="0.3"/>
<path d="M34.142 33.985L23.535 44.544C22.5954 45.4768 21.325 46.0003 20.001 46.0003C18.677 46.0003 17.4066 45.4768 16.467 44.544L5.857 33.985C4.00075 32.1406 2.52759 29.9474 1.52231 27.5315C0.517042 25.1156 -0.000488281 22.5247 -0.000488281 19.908C-0.000488281 17.2912 0.517042 14.7004 1.52231 12.2844C2.52759 9.86852 4.00075 7.67528 5.857 5.83095C9.61611 2.09616 14.7 0 19.999 0C25.298 0 30.3819 2.09616 34.141 5.83095C35.9973 7.67528 37.4704 9.86852 38.4757 12.2844C39.481 14.7004 39.9985 17.2912 39.9985 19.908C39.9985 22.5247 39.481 25.1156 38.4757 27.5315C37.4704 29.9474 35.9983 32.1406 34.142 33.985Z" fill="#5AB4C5"/>
<path d="M20 32C26.6274 32 32 26.6274 32 20C32 13.3726 26.6274 8 20 8C13.3726 8 8 13.3726 8 20C8 26.6274 13.3726 32 20 32Z" fill="white"/>
<path d="M20 56C22.2091 56 24 54.2091 24 52C24 49.7909 22.2091 48 20 48C17.7909 48 16 49.7909 16 52C16 54.2091 17.7909 56 20 56Z" fill="#5AB4C5"/>
</g>
<defs>
<clipPath id="clip0_2022_1545">
<rect width="40" height="60" fill="white"/>
</clipPath>
</defs>
</svg>
